<svg id="Layer_1" data-name="Layer 1" xmlns="http://www.w3.org/2000/svg" viewBox="0 0 144 144"><defs><style>.cls-1{fill:#54ba5f;}</style></defs><title>Artboard 25</title><path class="cls-1" d="M66.91,89.93H77.09a2.56,2.56,0,0,1,2.56,2.56v50A1.48,1.48,0,0,1,78.17,144H65.83a1.48,1.48,0,0,1-1.48-1.48v-50A2.56,2.56,0,0,1,66.91,89.93Z"/><path class="cls-1" d="M135,9V86.5H9V9H135m3.64-9H5.36A5.36,5.36,0,0,0,0,5.36V90.14A5.36,5.36,0,0,0,5.36,95.5H138.64A5.36,5.36,0,0,0,144,90.14V5.36A5.36,5.36,0,0,0,138.64,0Z"/><path class="cls-1" d="M71.44,121.7,29.18,141.47a1.33,1.33,0,0,0,.56,2.53h84.52a1.33,1.33,0,0,0,.56-2.53L72.56,121.7A1.37,1.37,0,0,0,71.44,121.7Z"/></svg>