<svg id="Layer_1" data-name="Layer 1" xmlns="http://www.w3.org/2000/svg" viewBox="0 0 175.17 175.17"><defs><style>.cls-1{fill:#54ba5f;}</style></defs><title>Artboard 2 copy</title><path class="cls-1" d="M120.43,0H54.74A54.74,54.74,0,0,0,0,54.74v65.69a54.74,54.74,0,0,0,54.74,54.74h65.69a54.74,54.74,0,0,0,54.74-54.74V54.74A54.74,54.74,0,0,0,120.43,0Zm38.32,120.43a38.36,38.36,0,0,1-38.32,38.32H54.74a38.36,38.36,0,0,1-38.32-38.32V54.74A38.36,38.36,0,0,1,54.74,16.42h65.69a38.36,38.36,0,0,1,38.32,38.32Z"/><path class="cls-1" d="M87.59,43.79a43.8,43.8,0,1,0,43.79,43.8A43.8,43.8,0,0,0,87.59,43.79Zm0,71.17A27.37,27.37,0,1,1,115,87.59,27.41,27.41,0,0,1,87.59,115Z"/><circle class="cls-1" cx="134.66" cy="40.51" r="5.84"/></svg>