<svg id="Layer_1" data-name="Layer 1" xmlns="http://www.w3.org/2000/svg" viewBox="0 0 144 144"><defs><style>.cls-1{fill:#54ba5f;}.cls-2{fill:#fff;}.cls-3{fill:none;stroke:#54ba5f;stroke-linecap:round;stroke-miterlimit:10;stroke-width:2px;}</style></defs><title>Artboard 26</title><path class="cls-1" d="M136,8V74H30V8H136m2.64-8H27.31A5.36,5.36,0,0,0,22,5.36V76.62A5.36,5.36,0,0,0,27.31,82H138.64A5.36,5.36,0,0,0,144,76.62V5.36A5.36,5.36,0,0,0,138.64,0Z"/><rect class="cls-2" x="2.77" y="46.39" width="38.36" height="67.18" rx="2.59" ry="2.59"/><path class="cls-1" d="M38.36,49.16V110.8H5.54V49.16H38.36m.18-5.54H5.36A5.36,5.36,0,0,0,0,49v62a5.36,5.36,0,0,0,5.36,5.36H38.54A5.36,5.36,0,0,0,43.9,111V49a5.36,5.36,0,0,0-5.36-5.36Z"/><rect class="cls-2" x="4.91" y="52.16" width="34.08" height="46.31" rx="0.34" ry="0.34"/><path class="cls-1" d="M38.5,52.65V98H5.4V52.65H38.5m.15-1H5.25a.83.83,0,0,0-.83.83V98.14a.83.83,0,0,0,.83.82h33.4a.83.83,0,0,0,.83-.82V52.5a.83.83,0,0,0-.83-.83Z"/><rect class="cls-2" x="31.86" y="93.64" width="29.47" height="48.74" rx="0.67" ry="0.67"/><path class="cls-1" d="M59.27,95.7v44.61H33.92V95.7H59.27m1.39-4.13H32.53a2.74,2.74,0,0,0-2.74,2.74V141.7a2.74,2.74,0,0,0,2.74,2.74H60.66a2.74,2.74,0,0,0,2.74-2.74V94.31a2.74,2.74,0,0,0-2.74-2.74Z"/><circle class="cls-1" cx="21.95" cy="105.33" r="3.66"/><line class="cls-3" x1="43.23" y1="136.9" x2="49.95" y2="136.9"/><path class="cls-2" d="M34.33,98.91H58.86a1,1,0,0,1,1,1v32.41a1,1,0,0,1-1,1H34.33a1,1,0,0,1-1-1V100A1,1,0,0,1,34.33,98.91Z"/><path class="cls-1" d="M58.86,99.42a.54.54,0,0,1,.53.54v32.4a.54.54,0,0,1-.53.54H34.33a.54.54,0,0,1-.53-.54V100a.54.54,0,0,1,.53-.54H58.86m0-1H34.33A1.56,1.56,0,0,0,32.77,100v32.4a1.56,1.56,0,0,0,1.56,1.56H58.86a1.55,1.55,0,0,0,1.55-1.56V100a1.55,1.55,0,0,0-1.55-1.56Z"/></svg>