<svg id="Layer_1" data-name="Layer 1" xmlns="http://www.w3.org/2000/svg" viewBox="0 0 144 144"><defs><style>.cls-1{fill:#54ba5f;}</style></defs><title>Artboard 28</title><path class="cls-1" d="M77.3,119.83,74.64,119q-10.15-3.22-20.31-6.43a.58.58,0,0,1-.49-.67q0-51.33,0-102.67V8.68c1.38.29,2.71.54,4,.84,9.59,2.18,19,4.94,28.34,8.06A64.19,64.19,0,0,1,98.43,23a29.79,29.79,0,0,1,8.12,6.75,25.68,25.68,0,0,1,5.09,10.81A51.72,51.72,0,0,1,112.7,54a28.2,28.2,0,0,1-1.93,9.64,15.94,15.94,0,0,1-4.93,6.81,13.75,13.75,0,0,1-8.48,2.86,22.55,22.55,0,0,1-8.8-1.83c-.55-.22-1.08-.48-1.63-.71a.44.44,0,0,1-.3-.49c0-4.59,0-9.19,0-13.78q0-10.64,0-21.27A13.36,13.36,0,0,0,86,30.79a5.52,5.52,0,0,0-4.6-3.94,2.75,2.75,0,0,0-2.65,1,5.76,5.76,0,0,0-1.25,3,18.54,18.54,0,0,0-.15,2.35q0,43,0,86.05Z"/><path class="cls-1" d="M81.75,118.23v-.35c0-4.28,0-8.56,0-12.84,0-.25,0-.38.31-.47l28.49-10.14c3.09-1.1,6.18-2.18,9.26-3.33a14.41,14.41,0,0,0,2.36-1.25,2.68,2.68,0,0,0,.77-.8,1.17,1.17,0,0,0-.18-1.65,4.59,4.59,0,0,0-1.14-.75,10.89,10.89,0,0,0-3.77-.85,26.57,26.57,0,0,0-10,1c-2.41.75-4.78,1.65-7.16,2.49L82.13,95.83l-.36.11V81.87c1-.31,1.92-.65,2.9-1A91.3,91.3,0,0,1,97,78.17a71.79,71.79,0,0,1,14.57-.8,72.61,72.61,0,0,1,18.95,3.26A51.36,51.36,0,0,1,138,83.48a14.15,14.15,0,0,1,4.42,3.2A5.61,5.61,0,0,1,144,90.24,5.4,5.4,0,0,1,142.54,94a16.62,16.62,0,0,1-4.31,3.37,42.75,42.75,0,0,1-7.45,3.3q-11,3.91-21.94,7.88l-26.71,9.59Z"/><path class="cls-1" d="M49.27,93.61v12.16l-2.58.44a75.33,75.33,0,0,1-11.61.94,77.61,77.61,0,0,1-23.91-3.77,32.54,32.54,0,0,1-5.65-2.19,13.62,13.62,0,0,1-3.88-3,5.45,5.45,0,0,1,.74-8.4,30.59,30.59,0,0,1,5.69-3.4A95.46,95.46,0,0,1,18.4,82.37L48.87,71.53l.41-.13v.48q0,6.28,0,12.58a.66.66,0,0,1-.52.74Q36.87,89.43,25,93.72a14.9,14.9,0,0,0-2.37,1.17,3.33,3.33,0,0,0-.88.8,1.28,1.28,0,0,0,.22,2,5.58,5.58,0,0,0,1.4.76,12.6,12.6,0,0,0,3.94.73,26.27,26.27,0,0,0,10-1.25c3-1,6-2.17,9-3.26l2.46-.89C49,93.7,49.09,93.67,49.27,93.61Z"/></svg>