<svg id="Layer_1" data-name="Layer 1" xmlns="http://www.w3.org/2000/svg" viewBox="0 0 170.72 160.06"><defs><style>.cls-1{fill:#54ba5f;}</style></defs><title>Artboard 4 copy</title><path class="cls-1" d="M167.37,119.52c-22.82-3.76-33.11-27.14-33.52-28.13,0-.06-.06-.13-.1-.19-1.16-2.37-1.44-4.32-.8-5.8,1.25-2.93,6-4.44,9.19-5.45.91-.28,1.78-.56,2.49-.84a19.38,19.38,0,0,0,6.81-4.06,6.5,6.5,0,0,0,2.07-4.66c0-2.73-2.14-5.16-5.48-6.35a10.09,10.09,0,0,0-3.72-.7,8.36,8.36,0,0,0-3.45.7,19.29,19.29,0,0,1-7.12,2,6.55,6.55,0,0,1-2.36-.51c.07-1.07.13-2.17.2-3.3l0-.49c.73-11.55,1.64-25.93-2.18-34.46A46.24,46.24,0,0,0,119,12.36,43.53,43.53,0,0,0,106.5,4.12,49.31,49.31,0,0,0,87,0h-.42L83.64,0A49.63,49.63,0,0,0,64.13,4.15a43.35,43.35,0,0,0-12.46,8.23A46.35,46.35,0,0,0,41.27,27.3c-3.82,8.52-2.91,22.89-2.19,34.44v0c.08,1.24.16,2.53.24,3.79a7,7,0,0,1-2.8.52,18.47,18.47,0,0,1-7.61-2A6.88,6.88,0,0,0,26,63.44a10.2,10.2,0,0,0-5.11,1.43,7.06,7.06,0,0,0-3.62,4.62c-.22,1.19-.21,3.57,2.44,6a20.78,20.78,0,0,0,6.36,3.64c.72.29,1.59.56,2.49.84,3.16,1,8,2.52,9.2,5.45.63,1.48.35,3.43-.81,5.8l-.09.19a56.08,56.08,0,0,1-8.6,13.3,48.11,48.11,0,0,1-10.37,9.15,38,38,0,0,1-14.56,5.67A4,4,0,0,0,0,123.67a5.14,5.14,0,0,0,.41,1.74h0c.82,1.91,2.71,3.52,5.79,4.94,3.75,1.74,9.36,3.2,16.7,4.34a21.13,21.13,0,0,1,1,3.67c.28,1.28.57,2.61,1,4a4.38,4.38,0,0,0,4.58,3.33,22.29,22.29,0,0,0,3.93-.55,44.32,44.32,0,0,1,8.95-1,39.22,39.22,0,0,1,6.4.54c4.18.7,7.79,3.23,12,6.18,6.11,4.31,13,9.19,23.58,9.19a8.44,8.44,0,0,0,.87,0c.34,0,.78,0,1.23,0,10.56,0,17.47-4.88,23.58-9.18h0c4.17-2.93,7.78-5.47,12-6.17a39.22,39.22,0,0,1,6.4-.54,44.78,44.78,0,0,1,8.95,1,21.75,21.75,0,0,0,3.93.48h.19a4.33,4.33,0,0,0,4.39-3.28c.4-1.37.69-2.66,1-4a21.85,21.85,0,0,1,1-3.65c7.33-1.15,12.95-2.6,16.7-4.34,3.07-1.42,5-3,5.78-4.93a5.1,5.1,0,0,0,.42-1.76A4,4,0,0,0,167.37,119.52Z"/></svg>