<?xml version="1.0" encoding="utf-8"?>
<!-- Generator: Adobe Illustrator 22.1.0, SVG Export Plug-In . SVG Version: 6.00 Build 0)  -->
<svg version="1.1" xmlns="http://www.w3.org/2000/svg" xmlns:xlink="http://www.w3.org/1999/xlink" x="0px" y="0px"
	 viewBox="0 0 558.5 167.5" style="enable-background:new 0 0 558.5 167.5;" xml:space="preserve">
<style type="text/css">
	.st0{display:none;fill:#FFFFFF;}
	.st1{fill:#54BA5F;}
</style>
<g id="Layer_1">
	<rect x="-75.1" y="-128.9" class="st0" width="708.7" height="425.2"/>
	<path class="st1" d="M222.3,44.7c2.6,0,13.7-0.8,27.3,9.4c0.6,0.5,0.7,1.3,0.3,2l-6.5,9.1c-0.5,0.7-1.4,0.8-2,0.3
		c-1.2-0.9-3.2-2.4-5.7-3.6c-3.9-2-9-3.6-13.4-3.6s-11.5,1.4-11.5,8.4c0,5.6,5,7.7,20.3,11.5c10,2.6,21.6,7.4,21.6,22.6
		c0,14-11.7,22.9-27.8,22.9c-9.7,0-23-3.7-31.4-12.2c-0.5-0.5-0.5-1.3-0.1-1.9l7.3-8.6c0.5-0.6,1.5-0.7,2-0.1
		c2.8,2.6,10.9,9.2,22.1,9.2c13.2,0,12.7-8,12.7-9.2c0-2.5-1.8-6.1-8.4-7.9c-6.5-1.8-22.9-4.9-29.1-12.1c-3.8-4.5-4.3-9.4-4.3-13.2
		C195.7,59.3,201.2,44.7,222.3,44.7z"/>
	<path class="st1" d="M290.6,63c-11.8,0-18.2,8.7-18.2,8.7v-6c0-0.8-0.6-1.4-1.4-1.4h-12.1c-0.8,0-1.4,0.6-1.4,1.4v72.8
		c0,0.8,0.6,1.4,1.4,1.4H271c0.8,0,1.4-0.6,1.4-1.4v-22.7c0,0,5.9,7.9,18.8,7.9c10.2,0,26.6-8.2,26.6-30.1
		C317.9,71.6,302.4,63,290.6,63z M287.5,110.7c-8.2,0-15.2-7.2-15.2-17.4c0-6.2,3.9-17.2,15.1-17.2s15.4,9,15.4,17.2
		C302.7,101.5,298.2,110.7,287.5,110.7z"/>
	<path class="st1" d="M352.9,63C333.8,63,322,78.6,322,93.4c0,16.2,12.6,30.4,31,30.4c18.5,0,31-14.6,31-30.4
		C384,77.6,372,63,352.9,63z M353,110.7c-7.8,0-16.3-6.5-16.3-17.3s7.7-17.2,16.3-17.2c6.6,0,16,5.5,16,17.2S360.8,110.7,353,110.7z
		"/>
	<path class="st1" d="M422.2,75.8V65.5c0-0.8-0.6-1.4-1.4-1.4H407v-14c0-0.8-0.6-1.4-1.4-1.4h-11.9c-0.8,0-1.4,0.6-1.4,1.4v14h-5.8
		c-0.8,0-1.4,0.6-1.4,1.4v10.3c0,0.8,0.6,1.4,1.4,1.4h5.8c0,0,0,22.7,0,29.2s3,17,16.1,17c6,0,11.2-2.1,13.1-3
		c0.5-0.2,0.8-0.7,0.8-1.3v-10.1c0-0.9-1-1.5-1.8-0.9c-1.4,0.9-3.6,1.9-6.9,1.9c-6.2,0-6.6-4.2-6.6-7.2s0-25.6,0-25.6h13.8
		C421.6,77.2,422.2,76.6,422.2,75.8z"/>
	<circle class="st1" cx="435.8" cy="47.8" r="9.2"/>
	<path class="st1" d="M441.7,122.5h-11.9c-0.8,0-1.4-0.6-1.4-1.4V65.5c0-0.8,0.6-1.4,1.4-1.4h11.9c0.8,0,1.4,0.6,1.4,1.4v55.6
		C443.1,121.8,442.5,122.5,441.7,122.5z"/>
	<path class="st1" d="M456.3,77.2h-5.7c-0.8,0-1.4-0.6-1.4-1.4V65.5c0-0.8,0.6-1.4,1.4-1.4h5.7c0,0,0-1.3,0-3.8s0.4-18.2,18.1-18.2
		c8.8,0,11.6,2,11.6,2s0,9.6,0,10.6s-0.4,1.9-1.5,1.5s-4.4-1.3-7.1-1.3s-6.4,1.6-6.4,6.3c0,1.7,0,2.9,0,2.9h21.7
		c0.6,0,1.1,0.4,1.3,0.9l15.1,39.2l13.6-39c0.2-0.6,0.7-1,1.3-1h13.3c0.6,0,1.1,0.6,0.8,1.2c-3.1,8.1-20.8,53.9-23.1,59.7
		c-2.5,6.4-6.7,15.1-18.9,15.1c-7.1,0-11.6-2.4-13.5-3.6c-0.6-0.4-0.8-1.1-0.5-1.8l4.3-9.3c0.2-0.4,0.7-0.5,1-0.3
		c1.2,0.8,4.1,2.2,7.4,2.2c4.8,0,7-5.7,7-5.7l-18.6-44.4h-12.2v43.9c0,0.8-0.6,1.4-1.4,1.4h-12c-0.8,0-1.4-0.6-1.4-1.4L456.3,77.2z"
		/>
	<g>
		<path class="st1" d="M545.5,68.1h4.4c1.2,0,2.2,0.3,2.8,1c0.5,0.5,0.8,1.3,0.8,2.2v0c0,1.6-0.8,2.5-2.1,3l2.4,3.5h-2.5l-2.1-3.1h0
			h-1.6v3.1h-2.1V68.1z M549.8,72.8c1,0,1.6-0.6,1.6-1.4v0c0-0.9-0.6-1.4-1.7-1.4h-2.1v2.8H549.8z"/>
	</g>
	<g>
		<path class="st1" d="M549.3,82.3c-5,0-9.1-4.1-9.1-9.1s4.1-9.1,9.1-9.1s9.1,4.1,9.1,9.1S554.4,82.3,549.3,82.3z M549.3,65
			c-4.5,0-8.1,3.6-8.1,8.1s3.7,8.1,8.1,8.1s8.1-3.7,8.1-8.1S553.8,65,549.3,65z"/>
	</g>
	<g>
		<path class="st1" d="M83.7,0C37.5,0,0,37.5,0,83.7s37.5,83.7,83.7,83.7c46.2,0,83.7-37.5,83.7-83.7S130,0,83.7,0z M122.1,120.9
			c-1,1.7-2.9,2.7-4.7,2.7c-1,0-1.9-0.3-2.8-0.8c-33-19.8-72.1-8.4-72.5-8.2c-2.9,0.9-6-0.8-6.9-3.7s0.8-6,3.7-6.9
			c1.8-0.5,44.1-13.1,81.3,9.3C122.8,114.9,123.6,118.3,122.1,120.9z M132.5,97.7c-1.2,2.1-3.4,3.3-5.6,3.3c-1.1,0-2.2-0.3-3.2-0.9
			c-41.4-23.8-83.2-10-83.6-9.8c-3.4,1.2-7.1-0.6-8.3-4c-1.2-3.4,0.6-7.1,4-8.3c1.9-0.7,47.8-15.9,94.3,10.8
			C133.2,90.6,134.3,94.6,132.5,97.7z M137.1,75.4c-1.3,0-2.5-0.3-3.7-0.9c-47.8-25.1-96.8-10.1-97.3-9.9c-4.2,1.3-8.7-1-10-5.2
			c-1.3-4.2,1-8.7,5.2-10c2.3-0.7,55.9-17.1,109.5,11c3.9,2.1,5.4,6.9,3.4,10.8C142.8,73.8,140,75.4,137.1,75.4z"/>
		<path class="st0" d="M120.2,113.4c-37.3-22.4-79.5-9.9-81.3-9.3c-2.9,0.9-4.5,4-3.7,6.9s4,4.5,6.9,3.7c0.4-0.1,39.5-11.6,72.5,8.2
			c0.9,0.5,1.9,0.8,2.8,0.8c1.9,0,3.7-1,4.7-2.7C123.6,118.3,122.8,114.9,120.2,113.4z"/>
		<path class="st0" d="M130.1,88.8C83.6,62.1,37.7,77.3,35.8,78c-3.4,1.2-5.2,4.9-4,8.3c1.2,3.4,4.9,5.2,8.3,4
			c0.4-0.1,42.1-14,83.6,9.8c1,0.6,2.1,0.9,3.2,0.9c2.2,0,4.4-1.2,5.6-3.3C134.3,94.6,133.2,90.6,130.1,88.8z"/>
		<path class="st0" d="M140.8,60.3C87.3,32.1,33.6,48.6,31.3,49.3c-4.2,1.3-6.6,5.8-5.2,10c1.3,4.2,5.8,6.6,10,5.2
			c0.5-0.2,49.5-15.2,97.3,9.9c1.2,0.6,2.5,0.9,3.7,0.9c2.9,0,5.7-1.6,7.1-4.3C146.3,67.2,144.8,62.3,140.8,60.3z"/>
	</g>
</g>
<g id="Layer_2">
</g>
</svg>
