<svg id="Layer_1" data-name="Layer 1" xmlns="http://www.w3.org/2000/svg" viewBox="0 0 175.17 142.33"><defs><style>.cls-1{fill:#54ba5f;}</style></defs><title>Artboard 3 copy</title><path class="cls-1" d="M175.17,16.85a74.71,74.71,0,0,1-20.69,5.67,35.67,35.67,0,0,0,15.8-19.85,71.74,71.74,0,0,1-22.77,8.69A35.91,35.91,0,0,0,85.39,35.92a37,37,0,0,0,.83,8.19,101.63,101.63,0,0,1-74-37.56,35.9,35.9,0,0,0,11,48A35.29,35.29,0,0,1,7,50.12v.4A36.07,36.07,0,0,0,35.78,85.8,35.81,35.81,0,0,1,26.36,87a31.88,31.88,0,0,1-6.8-.61,36.27,36.27,0,0,0,33.56,25A72.15,72.15,0,0,1,8.59,126.71a67.43,67.43,0,0,1-8.59-.5,101.09,101.09,0,0,0,55.09,16.12c66.09,0,102.22-54.74,102.22-102.19,0-1.59-.06-3.12-.14-4.65A71.41,71.41,0,0,0,175.17,16.85Z"/></svg>