<svg id="Layer_1" data-name="Layer 1" xmlns="http://www.w3.org/2000/svg" viewBox="0 0 144 144"><defs><style>.cls-1{fill:#54ba5f;}</style></defs><title>Artboard 27</title><path class="cls-1" d="M72.39,142.57a68.23,68.23,0,0,1-29-6.17,72.1,72.1,0,0,1-15.16-9.24,18.49,18.49,0,0,1-1.89-1.76,7.81,7.81,0,0,1-2.14-5.89,21.18,21.18,0,0,1,1.59-7,56.45,56.45,0,0,1,5.16-9.94A138.68,138.68,0,0,1,44.09,85.34,227.39,227.39,0,0,1,65.51,64c1.79-1.56,3.69-3,5.55-4.47.2-.16.45-.27.66-.42a1.19,1.19,0,0,1,1.58,0c1.45,1.16,3,2.25,4.35,3.49,7.08,6.27,13.74,13,20.24,19.85a135.22,135.22,0,0,1,14.61,18.28,65,65,0,0,1,6.25,11.47,25,25,0,0,1,1.75,6.21,10.35,10.35,0,0,1-.12,3.68,6.93,6.93,0,0,1-2,3.32,32.37,32.37,0,0,1-4.91,4,80.69,80.69,0,0,1-18.93,9.66,59.75,59.75,0,0,1-10,2.44A81,81,0,0,1,72.39,142.57Z"/><path class="cls-1" d="M128.43,114.54c.1-.55.17-1.11.3-1.65a15,15,0,0,0,.21-4.48c-.51-6.42-2.6-12.39-5.25-18.2a199.17,199.17,0,0,0-11.13-20.65A248.69,248.69,0,0,0,92.47,41.1l-.66-.83,1.92-1.77c3.21-2.94,6.4-5.91,9.82-8.61A55.19,55.19,0,0,1,112,24.18a28.27,28.27,0,0,1,6.82-2.64c.33-.08.68-.13,1-.18a1.53,1.53,0,0,1,1.22.32,20.27,20.27,0,0,1,1.83,1.5,56.84,56.84,0,0,1,8.28,10.21,72.84,72.84,0,0,1,10.21,24.93,54,54,0,0,1,.75,5.55,94.89,94.89,0,0,1,.34,10.93,68.92,68.92,0,0,1-.64,8.85A56.81,56.81,0,0,1,140.11,91a69.11,69.11,0,0,1-4.4,11.79,92.33,92.33,0,0,1-5.75,9.92c-.35.52-.73,1-1.11,1.51-.09.12-.2.22-.3.34Z"/><path class="cls-1" d="M52.91,40.31c-2,2.5-4,4.92-5.9,7.42A239.69,239.69,0,0,0,23.3,85.26,86.73,86.73,0,0,0,17.76,98.5a50.41,50.41,0,0,0-1.82,7.75,21.06,21.06,0,0,0-.24,5.66,19.75,19.75,0,0,0,.46,2c.06.27.15.54.23.81l-.11.07a8.17,8.17,0,0,1-.6-.72c-1-1.42-1.94-2.83-2.86-4.27a67.36,67.36,0,0,1-9.2-23C3,83.63,2.44,80.44,2.11,77.23a45.15,45.15,0,0,1-.33-4.91c0-2,.21-4.1.44-6.13.25-2.2.64-4.39,1-6.58A56.89,56.89,0,0,1,5.77,49.35,73.16,73.16,0,0,1,16.43,29.19,63.67,63.67,0,0,1,21.94,23a4.46,4.46,0,0,1,4.91-1.2A36.1,36.1,0,0,1,37.2,27a119.68,119.68,0,0,1,11,9.07L52.55,40C52.68,40.08,52.8,40.2,52.91,40.31Z"/><path class="cls-1" d="M36.79,11.25a2.79,2.79,0,0,1,.42-.35c1.15-.61,2.3-1.23,3.47-1.8A72.87,72.87,0,0,1,50,5.19,61.66,61.66,0,0,1,61.26,2.45c2.41-.32,4.85-.51,7.27-.59,2.77-.1,5.54-.08,8.31,0A54.18,54.18,0,0,1,91,4.12a79.25,79.25,0,0,1,14.1,5.5c1.12.59,2.2,1.26,3.3,1.89l0,.09c-.74,0-1.47-.06-2.21-.11a29.62,29.62,0,0,0-6.17.21c-7.24,1-14,3.58-20.57,6.64-2.22,1-4.46,2.05-6.68,3.1a1.52,1.52,0,0,1-1.45,0c-2.46-1.24-4.92-2.49-7.42-3.64a93.23,93.23,0,0,0-14.85-5.34,35,35,0,0,0-10.84-.95,12.46,12.46,0,0,1-1.37-.05Z"/></svg>